# xmcd CD database file
#
# Track frame offsets:
#	150
#	42986
#	80063
#	135186
#	178401
#	247506
#
# Disc length: 3926 seconds
#
# Revision: 0
# Processed by: cddbd v1.5PL3 Copyright (c) Steve Scherf et al.
# Submitted via: CDex 1.51
#
DISCID=440f5406
DTITLE=Soulive - Best of the Bowery Ballroom II
DYEAR=2003
DGENRE=Jazz
TTITLE0=So Live
TTITLE1=Liquid
TTITLE2=It's Your Thing
TTITLE3=Azucar
TTITLE4=Jesus children
TTITLE5=Lenny
EXTD=YEAR: 2003
EXTT0=
EXTT1=
EXTT2=
EXTT3=
EXTT4=
EXTT5=
PLAYORDER=
